#define Goblin_width 218
#define Goblin_height 315
static unsigned short Goblin_bits[] = {
   0x0000, 0x0000, 0x0000, 0x0000, 0x0000, 0x0000, 0x0000, 0x0000, 0x0000,
   0x0000, 0x0000, 0x0000, 0x0000, 0x0000, 0x0000, 0x0000, 0x0000, 0x0000,
   0x0000, 0x0000, 0x0000, 0x0000, 0x0000, 0x0000, 0x0000, 0x0000, 0x0000,
   0x0000, 0x0000, 0x0000, 0x0000, 0x0000, 0x0000, 0x0000, 0x0000, 0x0000,
   0x0000, 0x0000, 0x0000, 0x0000, 0x0000, 0x0000, 0x0000, 0x0000, 0x0000,
   0x0000, 0x0000, 0x0000, 0x0000, 0x0000, 0x0000, 0x0000, 0x0000, 0x0000,
   0x0000, 0x0000, 0x0000, 0x0000, 0x0000, 0x0000, 0x0000, 0x0000, 0x0000,
   0x0000, 0x0000, 0x0000, 0x0000, 0x0000, 0x0000, 0x0000, 0x0000, 0x0000,
   0x0000, 0x0000, 0x0000, 0x0000, 0x0000, 0x0000, 0x0000, 0x0000, 0x0000,
   0x0000, 0x0000, 0x0000, 0x0000, 0x0000, 0x0000, 0x0000, 0x0000, 0x0000,
   0x0000, 0x0000, 0x0000, 0x0000, 0x0000, 0x0000, 0x0000, 0x0000, 0x0000,
   0x0000, 0x0000, 0x0000, 0x0000, 0x0000, 0x0000, 0x0000, 0x0000, 0x0000,
   0x0000, 0x0000, 0x0000, 0x0000, 0x0000, 0x0000, 0x0000, 0x0000, 0x0000,
   0x0000, 0x0000, 0x0000, 0x0000, 0x0000, 0x0000, 0x0000, 0x0000, 0x0000,
   0x0000, 0x0000, 0x0000, 0x0000, 0x0000, 0x0000, 0x0800, 0x0000, 0x0000,
   0x0000, 0x0000, 0x0000, 0x0000, 0x0000, 0x0000, 0x0000, 0x0000, 0x0000,
   0x0000, 0x0000, 0x0000, 0x0000, 0x0000, 0x0000, 0x0000, 0x0000, 0x0000,
   0x0000, 0x0000, 0x0000, 0x0000, 0x0000, 0x0000, 0x0000, 0x0400, 0x0000,
   0x0000, 0x0000, 0x0000, 0x0000, 0x0000, 0x0000, 0x0000, 0x0000, 0x0000,
   0x0000, 0x0000, 0x0000, 0x0200, 0x0000, 0x0000, 0x0000, 0x0000, 0x0000,
   0x0000, 0x0000, 0x0000, 0x0000, 0x0000, 0x0000, 0x0000, 0x0000, 0x0200,
   0x0000, 0x0000, 0x0000, 0x0000, 0x0000, 0x0000, 0x0000, 0x0000, 0x0000,
   0x0000, 0x0000, 0x0000, 0x0000, 0x0300, 0x0000, 0x0000, 0x0000, 0x0000,
   0x0000, 0x0000, 0x0000, 0x0000, 0x0000, 0x0000, 0x0000, 0x0000, 0x0000,
   0x01a0, 0x0000, 0x0000, 0x0000, 0x0000, 0x0000, 0x0000, 0x0000, 0x0000,
   0x0000, 0x0000, 0x0000, 0x0000, 0x0000, 0x0190, 0x0000, 0x0000, 0x0000,
   0x0000, 0x0000, 0x0000, 0x0000, 0x0000, 0x0000, 0x0000, 0x0000, 0x0000,
   0x0000, 0x01d8, 0x0000, 0x0000, 0x0000, 0x0000, 0x0000, 0x0000, 0x0000,
   0x0000, 0x0000, 0x0000, 0x0000, 0x0000, 0x0000, 0x00d4, 0x0000, 0x0000,
   0x0000, 0x0000, 0x0000, 0x0000, 0x0000, 0x0000, 0x0000, 0x0000, 0x0000,
   0x6000, 0x0000, 0x00ee, 0x0000, 0x0000, 0x0000, 0x0000, 0x0000, 0x0000,
   0x0000, 0x0000, 0x0000, 0x0000, 0x0000, 0xb000, 0x0003, 0x00f3, 0x0000,
   0x0000, 0x0000, 0x0000, 0x0000, 0x0000, 0x0000, 0x0000, 0x0000, 0x0000,
   0x0000, 0x3400, 0x0007, 0x00f2, 0x0000, 0x0000, 0x0000, 0x0000, 0x0000,
   0x0000, 0x0000, 0x0000, 0x0000, 0x0000, 0x0000, 0x9400, 0xa807, 0x007c,
   0x0000, 0x0000, 0x0000, 0x0000, 0x0000, 0x0000, 0x0000, 0x0000, 0x0000,
   0x0000, 0x0000, 0xc500, 0x557f, 0x007a, 0x0000, 0x0000, 0x0000, 0x0000,
   0x0000, 0x0000, 0x0000, 0x0000, 0x0000, 0x0000, 0x0000, 0xf200, 0x6bff,
   0x007b, 0x0000, 0x0000, 0x0000, 0x0000, 0x0000, 0x0000, 0x0000, 0x0000,
   0x0000, 0x0000, 0x0000, 0x7000, 0x57ff, 0x0033, 0x0000, 0x0000, 0x0000,
   0x0000, 0x0000, 0x0000, 0x0000, 0x0000, 0x0000, 0x0000, 0x0000, 0xf840,
   0xafff, 0x002f, 0x0000, 0x0000, 0x0000, 0x0000, 0x0000, 0x0000, 0x0000,
   0x0000, 0x0000, 0x0000, 0x0000, 0xff80, 0x3fff, 0x001f, 0x0000, 0x0000,
   0x0000, 0x0000, 0x0000, 0x0000, 0x0000, 0x0000, 0x0000, 0x0000, 0x0000,
   0xf700, 0xeeff, 0x005f, 0x0000, 0x0000, 0x0000, 0x0000, 0x0000, 0x0000,
   0x0000, 0x0000, 0x0000, 0x0000, 0x0000, 0xff00, 0xffff, 0x003e, 0x0000,
   0x0000, 0x0000, 0x0000, 0x0000, 0x0000, 0x0000, 0x0000, 0x0000, 0x0000,
   0x0000, 0xde00, 0xcfff, 0x007f, 0x0000, 0x0000, 0x0000, 0x0000, 0x0000,
   0x0000, 0x0000, 0x0000, 0x0000, 0x0000, 0x0000, 0xbc00, 0xefff, 0x00f7,
   0x0000, 0x0000, 0x0000, 0x0000, 0x0000, 0x0000, 0x0000, 0x0000, 0x0000,
   0x0000, 0x0000, 0xfc00, 0xffff, 0x00e7, 0x0000, 0x0000, 0x0000, 0x0000,
   0x0000, 0x0000, 0x0000, 0x0000, 0x0000, 0x0000, 0x0000, 0xf800, 0xffff,
   0x07db, 0x0000, 0x0000, 0x0000, 0x0000, 0x0000, 0x0000, 0x0000, 0x0000,
   0x0000, 0x0000, 0x0000, 0xf000, 0xfbff, 0xaff3, 0x0000, 0x0000, 0x0000,
   0x0000, 0x0000, 0x0000, 0x0000, 0x0000, 0x0000, 0x0000, 0x0000, 0xfa00,
   0xfbff, 0xbf81, 0x0007, 0x0000, 0x0000, 0x0000, 0x0000, 0x0000, 0x0000,
   0x0000, 0x0000, 0x0000, 0x0000, 0xfdc0, 0xf9ff, 0xeedc, 0x000e, 0x0000,
   0x0000, 0x0000, 0x0000, 0x0000, 0x0000, 0x0000, 0x0000, 0x0000, 0x0000,
   0xeb40, 0xffff, 0xcdb4, 0x001e, 0x0000, 0x0000, 0x0000, 0x0000, 0x0000,
   0x0000, 0x0000, 0x0000, 0x0000, 0x0000, 0xd280, 0x7cff, 0xb628, 0x000f,
   0x0000, 0x0000, 0x0000, 0x0000, 0x0000, 0x0000, 0x0000, 0x0000, 0x0000,
   0x0000, 0xeac0, 0x3fff, 0xc662, 0x0007, 0x0000, 0x0000, 0x0000, 0x0000,
   0x0000, 0x0000, 0x0000, 0x0000, 0x0000, 0x0000, 0xf540, 0x3e9f, 0xefa0,
   0x0003, 0x0000, 0x0000, 0x0000, 0x0000, 0x0000, 0x0000, 0x0000, 0x0000,
   0x0000, 0x0000, 0xc440, 0x3f5f, 0xf3da, 0x0000, 0x0000, 0x0000, 0x0000,
   0x0000, 0x0000, 0x0000, 0x0000, 0x0000, 0x0000, 0x0000, 0xf920, 0x1f46,
   0x7801, 0x0000, 0x0000, 0x0000, 0x0000, 0x0000, 0x0000, 0x0000, 0x0000,
   0x0000, 0x0000, 0x0000, 0xffe0, 0x0f4e, 0x3c21, 0x0000, 0x0000, 0x0000,
   0x0000, 0x0000, 0x0000, 0x0000, 0x0000, 0x0000, 0x0000, 0x0000, 0xbfe0,
   0x5fa0, 0x0fff, 0x0000, 0x0000, 0x0000, 0x0000, 0x0000, 0x0000, 0x0000,
   0x0000, 0x0000, 0x0000, 0x0000, 0x7fc0, 0xffaf, 0x07ff, 0x0000, 0x0000,
   0x0000, 0x0000, 0x0000, 0x0000, 0x0000, 0x0000, 0x0000, 0x0000, 0x0000,
   0xf080, 0xff9f, 0x01ff, 0x0000, 0x0000, 0x0000, 0x0000, 0x0000, 0x0000,
   0x0000, 0x0000, 0x0000, 0x0000, 0x0000, 0xf000, 0xffdf, 0x001f, 0x0000,
   0x0000, 0x0000, 0x0000, 0x0000, 0x0000, 0x0000, 0x0000, 0x0000, 0x0000,
   0x0000, 0x7000, 0xffd5, 0x001f, 0x0000, 0x0000, 0x0000, 0x0000, 0x0000,
   0x0000, 0x0000, 0x0000, 0x0000, 0x0000, 0x0000, 0x3800, 0xfffd, 0x001f,
   0x0000, 0x0000, 0x0000, 0x0000, 0x0000, 0x0000, 0x0000, 0x0000, 0x0000,
   0x0000, 0x0000, 0xf800, 0xffff, 0x001f, 0x0000, 0x0000, 0x0000, 0x0000,
   0x0000, 0x0000, 0x0000, 0x0000, 0x0000, 0x0000, 0x0000, 0xfc00, 0xffff,
   0x003f, 0x0000, 0x0000, 0x0000, 0x0000, 0x0000, 0x0000, 0x0000, 0x0000,
   0x0000, 0x0000, 0x0000, 0xf800, 0xffff, 0x001f, 0x0000, 0x0000, 0x0000,
   0x0000, 0x0000, 0x0000, 0x0000, 0x0000, 0x0000, 0x0000, 0x0000, 0xf000,
   0xffff, 0x001f, 0x0000, 0x0000, 0x0000, 0x0000, 0x0000, 0x0000, 0x0000,
   0x0000, 0x0000, 0x0000, 0x0000, 0xf800, 0xbfff, 0x000f, 0x0000, 0x0000,
   0x0000, 0x0000, 0x0000, 0x0000, 0x0000, 0x0000, 0x0000, 0x0000, 0x0000,
   0xbc00, 0x9fff, 0x0007, 0x0000, 0x0000, 0x0000, 0x0000, 0x0000, 0x0000,
   0x0000, 0x0000, 0x0000, 0x0000, 0x0000, 0x7c00, 0x0ffe, 0x0003, 0x0000,
   0x0000, 0x0000, 0x0000, 0x0000, 0x0000, 0x0000, 0x0000, 0x0000, 0x0000,
   0x0000, 0xdc00, 0x07fd, 0x0000, 0x0000, 0x0000, 0x0000, 0x0000, 0x0000,
   0x0000, 0x0000, 0x0000, 0x0000, 0x0000, 0x0000, 0xa400, 0x07ff, 0x0000,
   0x0000, 0x0000, 0x0000, 0x0000, 0x0000, 0x0000, 0x0000, 0x0000, 0x0000,
   0x0000, 0x0000, 0xbe00, 0x03ff, 0x0000, 0x0000, 0x0000, 0x0000, 0x0000,
   0x0000, 0x0000, 0x0000, 0x0000, 0x0000, 0x0000, 0x0000, 0xea00, 0x00fe,
   0x0000, 0x0000, 0x0000, 0x0000, 0x0000, 0x0000, 0x0000, 0x0000, 0x0000,
   0x0000, 0x0000, 0x0000, 0xc600, 0x00ff, 0x0000, 0x0000, 0x0000, 0x0000,
   0x0000, 0x0000, 0x0000, 0x0000, 0x0000, 0x0000, 0x0000, 0x0000, 0xde00,
   0x007f, 0x0000, 0x0000, 0x0000, 0x0000, 0x0000, 0x0000, 0x0000, 0x0000,
   0x0000, 0x0000, 0x0000, 0x0000, 0x9b00, 0x00ff, 0x0000, 0x0000, 0x0000,
   0x0000, 0x0000, 0x0000, 0x0000, 0x0000, 0x0000, 0x0000, 0x0000, 0x0000,
   0xf500, 0x003f, 0x0000, 0x0000, 0x0000, 0x0000, 0x0000, 0x0000, 0x0000,
   0x0000, 0x0000, 0x0000, 0x0000, 0x0000, 0xfd80, 0x011f, 0x0000, 0x0000,
   0x0000, 0x0000, 0x0000, 0x0000, 0x0000, 0x0000, 0x0000, 0x0000, 0x0000,
   0x0000, 0xf580, 0x031f, 0x0000, 0x0000, 0x0000, 0x0000, 0x0000, 0x0000,
   0x0000, 0x0000, 0x0000, 0x0000, 0x0000, 0x0000, 0xf580, 0x060f, 0x0000,
   0x0000, 0x0000, 0x0000, 0x0000, 0x0000, 0x0000, 0x0000, 0x0000, 0x0000,
   0x0000, 0x0000, 0xfb80, 0x230f, 0x0000, 0x0000, 0x0000, 0x0000, 0x0000,
   0x0000, 0x0000, 0x0000, 0x0000, 0x0000, 0x0000, 0x0000, 0xff80, 0x1607,
   0x0000, 0x0000, 0x0000, 0x0000, 0x0000, 0x0000, 0x0000, 0x0000, 0x0000,
   0x0000, 0x0000, 0x0000, 0xffc0, 0x0b07, 0x0000, 0x0000, 0x0000, 0x0000,
   0x0000, 0x0000, 0x0000, 0x0000, 0x0000, 0x0000, 0x0000, 0x0000, 0xfdc0,
   0x0703, 0x0000, 0x0000, 0x0000, 0x0000, 0x0000, 0x0000, 0x0000, 0x0000,
   0x0000, 0x0000, 0x0000, 0x0000, 0xfee0, 0x0381, 0x0000, 0x0000, 0x0000,
   0x0000, 0x0000, 0x0000, 0x0000, 0x0000, 0x0000, 0x0000, 0x0000, 0x0000,
   0xffe0, 0x0380, 0x0000, 0x0000, 0x0000, 0x0000, 0x0000, 0x0000, 0x0000,
   0x0000, 0x0000, 0x0000, 0x0000, 0x0000, 0x7fe0, 0x00c0, 0x0000, 0x0000,
   0x0000, 0x0000, 0x0000, 0x0000, 0x0000, 0x0000, 0x0000, 0x0000, 0x0000,
   0x0000, 0x3f90, 0x0020, 0x0000, 0x0000, 0x0000, 0x0000, 0x0000, 0x0000,
   0x0000, 0x0000, 0x0000, 0x0000, 0x0000, 0x0000, 0x3f70, 0x0000, 0x0000,
   0x0000, 0x0000, 0x0000, 0x0000, 0x0000, 0x0000, 0x0000, 0x0000, 0x0000,
   0x0000, 0x0000, 0x1fd0, 0x0008, 0x0000, 0x0000, 0x0000, 0x0000, 0x0000,
   0x0000, 0x0000, 0x0000, 0x0000, 0x0000, 0x0000, 0x0000, 0x1fd8, 0x0000,
   0x0000, 0x0000, 0x0000, 0x0000, 0x0000, 0x0000, 0x0000, 0x0000, 0x0000,
   0x0000, 0x0000, 0x0000, 0x0ff8, 0x0001, 0x0000, 0x0000, 0x0000, 0x0000,
   0x0000, 0x0000, 0x0000, 0x0000, 0x0000, 0x0000, 0x0000, 0x0000, 0x8fcc,
   0x0000, 0x0000, 0x0000, 0x0000, 0x0000, 0x0000, 0x0000, 0x0000, 0x0000,
   0x0000, 0x0000, 0x0000, 0x0000, 0x3ffc, 0x0000, 0x0000, 0x0000, 0x0000,
   0x0000, 0x0000, 0x0000, 0x0000, 0x0000, 0x0000, 0x0000, 0x0000, 0x0000,
   0x1ffe, 0x0000, 0x0000, 0x0000, 0x0000, 0x0000, 0x0000, 0x0000, 0x0000,
   0x0000, 0x0000, 0x0000, 0x0000, 0x0000, 0x1ffe, 0x0000, 0x0000, 0x0000,
   0x0000, 0x0000, 0x0000, 0x0000, 0x0000, 0x0000, 0x0000, 0x0000, 0x0000,
   0x0000, 0x0fff, 0x0000, 0x0000, 0x0000, 0x0000, 0x0000, 0x0000, 0x0000,
   0x0000, 0x0000, 0x0000, 0x0000, 0x0000, 0x0000, 0x03ff, 0x0000, 0x0000,
   0x0000, 0x0000, 0x0000, 0x0000, 0x0000, 0x0000, 0x0000, 0x0000, 0x0000,
   0x0000, 0x8000, 0x01fd, 0x0000, 0x0000, 0x0000, 0xfe00, 0x0000, 0x0000,
   0x0000, 0x0000, 0x0000, 0x0000, 0x0000, 0x0000, 0x8000, 0x00ff, 0x0000,
   0x0000, 0x0000, 0xff00, 0xf403, 0x003b, 0x0000, 0x0000, 0x0000, 0x0000,
   0x0000, 0x0000, 0xc000, 0x007e, 0x0000, 0x0000, 0xc000, 0xff80, 0xffeb,
   0x00a4, 0x0000, 0x0000, 0x0000, 0x0000, 0x0000, 0x0000, 0xc000, 0x007f,
   0x0000, 0x8154, 0x0000, 0xff82, 0xffff, 0x0ba7, 0x0000, 0x0000, 0x0000,
   0x0000, 0x0000, 0x0000, 0x6000, 0x003e, 0x8000, 0xfff7, 0x002f, 0xff08,
   0x00ff, 0x1e7e, 0x0000, 0x0000, 0x0000, 0x0000, 0x0000, 0x0000, 0xe000,
   0x003e, 0x4000, 0x5d01, 0x009b, 0xff08, 0x003f, 0x3de0, 0x0000, 0x0000,
   0x0000, 0x0000, 0x0000, 0x0000, 0x5000, 0x001f, 0x2000, 0xfc00, 0x0056,
   0xff3e, 0x000f, 0x1fc0, 0x0000, 0x0000, 0x0000, 0x0000, 0x0000, 0x0000,
   0x7000, 0x001f, 0x2000, 0xb000, 0x015f, 0xffff, 0x0007, 0x1f00, 0x0000,
   0x0000, 0x0000, 0x0000, 0x0000, 0x0000, 0xa800, 0x000f, 0x0000, 0xe000,
   0x957e, 0xffff, 0x0007, 0x0000, 0x0000, 0x0000, 0x0000, 0x0000, 0x0000,
   0x0000, 0xa800, 0x000f, 0x0000, 0x8000, 0x51f5, 0xfffe, 0x0403, 0x0000,
   0x0000, 0x0000, 0x0000, 0x0000, 0x0000, 0x0000, 0xbc00, 0x0007, 0x0000,
   0x0000, 0x07de, 0xfff8, 0x0c01, 0x0000, 0x0000, 0x0000, 0x0000, 0x0000,
   0x0000, 0x0000, 0xfc00, 0x0007, 0x0000, 0x0000, 0x3fb4, 0xffe0, 0x1e01,
   0x0000, 0x0200, 0x0000, 0x0000, 0x0000, 0x0000, 0x0000, 0xfe00, 0x0003,
   0x0000, 0x0000, 0xff68, 0xff01, 0x3d01, 0x0000, 0x0100, 0x0000, 0x0000,
   0x0000, 0x0000, 0x0000, 0xf300, 0x0001, 0x0000, 0x0000, 0xfd90, 0xe003,
   0xf001, 0x0001, 0x0180, 0x0000, 0x0000, 0x0000, 0x0000, 0x0000, 0xff80,
   0x0001, 0x0000, 0x0000, 0xf950, 0xe007, 0xe002, 0x01df, 0x01e0, 0x0000,
   0x0000, 0x0000, 0x0000, 0x0000, 0xff80, 0x0000, 0x0000, 0x0000, 0xf320,
   0x600e, 0xc001, 0x07ff, 0x01e0, 0x0000, 0x0000, 0x0000, 0x0000, 0x0000,
   0xffc0, 0x0000, 0x0000, 0x0000, 0x8a50, 0xf00e, 0xf000, 0x01ff, 0x01f8,
   0x0000, 0x0000, 0x0000, 0x0000, 0x0000, 0x7f60, 0x0000, 0x0000, 0x0000,
   0xb550, 0xf01f, 0xe000, 0x00fd, 0x00e0, 0x0000, 0x0000, 0x0000, 0x0000,
   0x0000, 0x7de0, 0x0000, 0x0000, 0x0000, 0xa528, 0xf03f, 0xc001, 0x0011,
   0x01c2, 0x0000, 0x0000, 0x0000, 0x0000, 0x0000, 0x3ff0, 0x0000, 0x0000,
   0x0000, 0x6d5c, 0xf87f, 0x0001, 0x001f, 0x0144, 0x0000, 0x0000, 0x0000,
   0x0000, 0x0000, 0x3ff0, 0x0000, 0x0000, 0x0000, 0x2aff, 0xfffe, 0x0003,
   0x0202, 0x0080, 0x0000, 0x0000, 0x0000, 0x0000, 0x0000, 0x1f78, 0x0000,
   0x0000, 0xe000, 0x601f, 0xfffd, 0x0007, 0x4480, 0x028a, 0x0000, 0x0000,
   0x0000, 0x0000, 0x0000, 0x1ffc, 0x0000, 0x4000, 0xfe80, 0xf803, 0xfff9,
   0x0015, 0x8f20, 0x0650, 0x0000, 0x0000, 0x0000, 0x0000, 0x1000, 0x0ffc,
   0x0000, 0xf800, 0x03d7, 0xfc00, 0xfff3, 0x002f, 0x7e10, 0x0485, 0x0000,
   0x0000, 0x0000, 0x0000, 0x0800, 0x0ffe, 0x0000, 0x3600, 0x0000, 0xfe00,
   0xfe8b, 0x80bf, 0xf610, 0x0752, 0x0000, 0x0000, 0x0000, 0x0000, 0x0600,
   0x0ffc, 0x0000, 0x0700, 0x0010, 0xff00, 0xff2f, 0x15fd, 0xfc05, 0x0645,
   0x0000, 0x0000, 0x0000, 0x0000, 0x0200, 0x07fc, 0x0000, 0x0080, 0x0010,
   0xff80, 0xffff, 0x45bb, 0xf808, 0x035b, 0x0000, 0x0000, 0x0000, 0x0000,
   0x0700, 0x02ec, 0x0000, 0x0040, 0x0000, 0xff80, 0xffff, 0x57f5, 0xf008,
   0x03eb, 0x0000, 0x0000, 0x0000, 0x0000, 0x0e00, 0x01f8, 0x0000, 0x0000,
   0x0004, 0xffc0, 0xffff, 0x0aab, 0xc001, 0x01af, 0x0000, 0x0000, 0x0000,
   0x0000, 0x5b00, 0x03f8, 0x0000, 0x0000, 0x0000, 0xfff8, 0xffff, 0x2bab,
   0x000a, 0x00dd, 0x0000, 0x0000, 0x0000, 0x0000, 0x4180, 0x0024, 0x0000,
   0x0000, 0x8000, 0xffff, 0xffff, 0x1115, 0x4004, 0x006f, 0x0000, 0x0000,
   0x0000, 0x0000, 0x8180, 0x04ac, 0x0000, 0x0000, 0xe000, 0xffff, 0xffff,
   0xa32b, 0x0800, 0x007e, 0x0000, 0x0000, 0x0000, 0x0000, 0x0080, 0x9179,
   0x0000, 0x0000, 0xf000, 0xffff, 0xffff, 0x2aab, 0xff82, 0x007f, 0x0000,
   0x0000, 0x0000, 0x0000, 0xc180, 0x16fb, 0x0000, 0x0000, 0xf800, 0xffff,
   0xffff, 0x452f, 0xffc5, 0x003f, 0x0000, 0x0000, 0x0000, 0x0000, 0xc2c0,
   0x5bf5, 0x0000, 0x0000, 0xfc00, 0xffff, 0xffaf, 0x36b7, 0x13e2, 0x003d,
   0x0000, 0x0000, 0x0000, 0x0000, 0x96a0, 0xbfff, 0x0000, 0x0004, 0xff80,
   0x7fff, 0xff00, 0xe4af, 0xa164, 0x003e, 0x0000, 0x0000, 0x0000, 0x0000,
   0x39a0, 0x57ff, 0x0000, 0x0000, 0xfe38, 0x0fff, 0xff28, 0x4abf, 0xcdf9,
   0x003d, 0x0000, 0x0000, 0x0000, 0x0000, 0xe0a0, 0x6ffe, 0x0000, 0x0000,
   0x5f06, 0x07fc, 0xfe20, 0x52b7, 0xefd3, 0x003f, 0x0000, 0x0000, 0x0000,
   0x0000, 0xf0e0, 0xd7ff, 0x0001, 0x0000, 0x0086, 0x00a0, 0xfc84, 0xe57f,
   0x1b2a, 0x0034, 0x0000, 0x0000, 0x0000, 0x0000, 0xb1a0, 0xdfff, 0x8000,
   0x0003, 0x0002, 0x0000, 0xfa20, 0x8aff, 0xfee5, 0x0077, 0x0000, 0x0000,
   0x0000, 0x0000, 0xe560, 0xfbff, 0xe001, 0x0000, 0x0002, 0x0000, 0xf415,
   0x57ff, 0xa34f, 0x0029, 0x0000, 0x0000, 0x0000, 0x0000, 0xd7c0, 0xffff,
   0x2000, 0x0000, 0x0003, 0x0000, 0xc508, 0x5fff, 0x4bad, 0x0029, 0x0000,
   0x0000, 0x0000, 0x0000, 0xfe30, 0xffff, 0x0001, 0x8000, 0x0000, 0x4000,
   0xe441, 0x7fff, 0xa05d, 0x0073, 0x0000, 0x0000, 0x0000, 0x0000, 0xf0b0,
   0xffff, 0x0001, 0x8000, 0x0000, 0x0000, 0x448a, 0xffff, 0x0abf, 0x0077,
   0x0000, 0x0000, 0x0000, 0x0000, 0xea50, 0xffff, 0x0001, 0x2000, 0x0000,
   0x4800, 0xc121, 0xffff, 0xa57f, 0x005b, 0x0000, 0x0000, 0x0000, 0x0000,
   0xfa50, 0xffff, 0x0003, 0x2000, 0x0000, 0x0000, 0x9240, 0xfffe, 0xdfff,
   0x003f, 0x0000, 0x0000, 0x0000, 0x0000, 0xfc50, 0xffff, 0x0001, 0x1000,
   0x0000, 0x2000, 0xe010, 0xffff, 0xfeff, 0x0005, 0x0000, 0x0000, 0x0000,
   0x0000, 0xf970, 0xffff, 0x0001, 0x2c00, 0x0000, 0x0000, 0xd2a0, 0xfffd,
   0x30ff, 0x0000, 0x0000, 0x0000, 0x0000, 0x0000, 0xffe0, 0xffff, 0x0002,
   0x1200, 0x0000, 0x0400, 0x5808, 0xffff, 0x03ff, 0x0000, 0x0000, 0x0000,
   0x0000, 0x0000, 0xffe0, 0xffff, 0x0005, 0x0848, 0x0000, 0x0400, 0x5810,
   0xfffd, 0xdfff, 0x0000, 0x0000, 0x0000, 0x0000, 0x0000, 0xffe0, 0xffff,
   0x0005, 0x2800, 0x0000, 0x8004, 0x568a, 0xffff, 0xffff, 0x0007, 0x0000,
   0x0000, 0x0000, 0x0000, 0xffe0, 0xffff, 0x001f, 0x0800, 0x0000, 0x0000,
   0x5688, 0xfff5, 0xffff, 0x001f, 0x0000, 0x0000, 0x0000, 0x0000, 0xfff0,
   0x7fff, 0x0055, 0x5400, 0x0000, 0x0009, 0x5120, 0xffdf, 0xffff, 0x003f,
   0x0000, 0x0000, 0x0000, 0x0000, 0xfff0, 0xffff, 0x005d, 0x1400, 0x0000,
   0x0000, 0xabc0, 0xffea, 0xffff, 0x007f, 0x0000, 0x0000, 0x0000, 0x0000,
   0xfff8, 0xffff, 0x00b5, 0x4c00, 0x4004, 0x0002, 0x5040, 0xffd7, 0xffff,
   0x00ff, 0x0000, 0x0000, 0x0000, 0x0000, 0xfff8, 0xffff, 0x01b7, 0x9600,
   0x0940, 0x0000, 0xa940, 0xffee, 0xffff, 0x00ff, 0x0000, 0x0000, 0x0000,
   0x0000, 0xfffc, 0xffff, 0x02ef, 0x0b80, 0x240a, 0x0000, 0xd600, 0xfffb,
   0xffff, 0x01ff, 0x0000, 0x0000, 0x0000, 0x0000, 0xfffc, 0xffff, 0x0fe7,
   0x5bc0, 0x0400, 0x0000, 0x5404, 0xfffb, 0xffff, 0x01ff, 0x0000, 0x0000,
   0x0000, 0x0000, 0xfffc, 0xffff, 0x15ff, 0x97f0, 0x036a, 0x0000, 0x6810,
   0xfffd, 0xffff, 0x03ff, 0x0000, 0x0000, 0x0000, 0x0000, 0xfffe, 0xffff,
   0x3e77, 0x5ff0, 0x0355, 0x0000, 0x5140, 0xfffd, 0xffff, 0x03ff, 0x0000,
   0x0000, 0x0000, 0x0200, 0xffff, 0xffff, 0x2f7f, 0xabb0, 0x05d6, 0x0000,
   0x4400, 0xfff9, 0xffff, 0x07ff, 0x0000, 0x0000, 0x0000, 0x0400, 0xfdff,
   0xffff, 0x3eff, 0xbfb2, 0x01da, 0x0000, 0x0090, 0xfff0, 0xffff, 0x05ff,
   0x0000, 0x0000, 0x0000, 0x8400, 0xfdfb, 0xffff, 0x71ff, 0xdff0, 0x06f6,
   0x0000, 0x2200, 0xfffc, 0xffff, 0x19bf, 0x0000, 0x0000, 0x0000, 0xc800,
   0xf8ff, 0xffff, 0xf7ff, 0x7f70, 0x02c0, 0x0000, 0x2020, 0xfcd0, 0xffff,
   0x2fff, 0x0000, 0x0000, 0x0000, 0x8000, 0xf8ff, 0xffff, 0xf7ff, 0x3ff2,
   0x0581, 0x0000, 0x0100, 0xf330, 0xffff, 0x514f, 0x0000, 0x0000, 0x0000,
   0xc800, 0xf07f, 0xffff, 0xd7ff, 0x7fe2, 0x0794, 0x0000, 0x0020, 0xef60,
   0xffff, 0xd73b, 0x0001, 0x0000, 0x0000, 0xf000, 0xf07f, 0xffff, 0xffff,
   0xffe2, 0x05e2, 0x0000, 0x0100, 0xffd8, 0xffff, 0x77af, 0x0006, 0x0000,
   0x0000, 0xb808, 0xe07f, 0xffff, 0xffff, 0xffe2, 0x0d8d, 0x0000, 0x0101,
   0xfee8, 0xffff, 0xeec7, 0x000c, 0x0000, 0x0000, 0x3000, 0xe03f, 0xffff,
   0xffff, 0xffe1, 0x17f1, 0x0000, 0x0048, 0xfbd8, 0xffff, 0xebdd, 0x0017,
   0x0000, 0x0000, 0x3000, 0x803f, 0xffff, 0xffff, 0xffe6, 0x17a5, 0x0000,
   0x0100, 0xe7fa, 0xbfff, 0xebb1, 0x001f, 0x0000, 0x0000, 0xe000, 0x403f,
   0xfffe, 0xffff, 0xffd2, 0x2dd7, 0x0000, 0x0088, 0xdffa, 0xffff, 0xfe7e,
   0x017f, 0x0000, 0x0000, 0xf800, 0x801f, 0xfffe, 0xffff, 0xfdc5, 0x5fdf,
   0x0000, 0x0111, 0xbffe, 0xffff, 0xffea, 0x07ff, 0x0000, 0x0000, 0xfc00,
   0x001c, 0xfffe, 0xffff, 0xfbca, 0xb7ef, 0x0014, 0x0140, 0xfffe, 0xffff,
   0xff3e, 0x09ff, 0x0000, 0x0000, 0xce00, 0x001e, 0xfffc, 0xffff, 0xfb95,
   0xff7f, 0x002e, 0x8102, 0xfffe, 0xffff, 0xffe5, 0x07ff, 0x0000, 0x0000,
   0x6e00, 0x0003, 0xfffc, 0xffff, 0xf7aa, 0xdbff, 0x40af, 0x4148, 0xfffe,
   0xffff, 0xffdf, 0x0fff, 0x0000, 0x0000, 0xfb00, 0x0003, 0xfff8, 0xffff,
   0xefb7, 0xbf7f, 0x007e, 0x0940, 0xffe2, 0xdfff, 0xffff, 0x1fff, 0x0000,
   0x0000, 0xff00, 0x0003, 0xfdf8, 0xffff, 0xefee, 0xf73f, 0x829f, 0x52a8,
   0xffd1, 0xffff, 0xffff, 0x3fdf, 0x0002, 0x0000, 0xfe80, 0x0005, 0xfff0,
   0xffff, 0xefdd, 0x563f, 0x0abd, 0x0290, 0xfc02, 0xfffd, 0xa00f, 0x7fff,
   0x0003, 0x0000, 0x2480, 0x0004, 0xff70, 0xffff, 0xffff, 0xdf1f, 0x02b7,
   0x2875, 0xfd00, 0xb680, 0x0000, 0x7ffe, 0x0005, 0x0000, 0x4480, 0x0094,
   0xfee0, 0xffff, 0xffff, 0x5e0f, 0x1576, 0x20e4, 0x6800, 0x0001, 0x0000,
   0xfffc, 0x0001, 0x0000, 0x6380, 0x0048, 0xec00, 0xffff, 0xffb7, 0x7c00,
   0xa5e9, 0x92b9, 0x4000, 0x0001, 0x8400, 0xfff8, 0x0005, 0x0000, 0x4100,
   0x0010, 0xfc00, 0xffff, 0xffff, 0xdc01, 0xb70b, 0x2eba, 0x4801, 0x0003,
   0x2090, 0xbff5, 0x000c, 0x0000, 0x0000, 0x0024, 0xd800, 0xffff, 0x3aaf,
   0xb400, 0x54aa, 0x55fd, 0x5002, 0x8003, 0x8548, 0x7ffe, 0x0005, 0x0000,
   0x4080, 0x0018, 0xf800, 0xffff, 0x0aab, 0x7c00, 0x281b, 0x141d, 0xd000,
   0x004b, 0xc041, 0x7ffb, 0x000c, 0x0140, 0x0000, 0x0000, 0xf000, 0x7fff,
   0x00d5, 0xaf00, 0x5296, 0x012e, 0xd002, 0x2ab7, 0x1100, 0x3fe8, 0x0007,
   0x0000, 0x2024, 0x0000, 0xe000, 0xffff, 0x0077, 0xfe00, 0x0434, 0x082f,
   0x8000, 0x80e7, 0x005a, 0x9ff4, 0x000f, 0x0000, 0x4005, 0x0000, 0xc000,
   0xffff, 0x001e, 0x7c00, 0x284a, 0x555f, 0xd100, 0x003f, 0x8028, 0xc7ff,
   0x0007, 0x4000, 0x0800, 0x0000, 0x0000, 0xfffc, 0x0005, 0xec00, 0x81a8,
   0x57ff, 0xda23, 0x007f, 0xf058, 0xc1fb, 0x000f, 0x0000, 0x2000, 0x0000,
   0x0000, 0xffe4, 0x0003, 0xfc00, 0x4053, 0x2f7f, 0xf448, 0xff7f, 0xfa7f,
   0xe0bf, 0x000f, 0x0000, 0x0000, 0x0000, 0x0000, 0x6fc4, 0x0001, 0xfc00,
   0x954b, 0xdeff, 0xf288, 0x7ff7, 0xffff, 0xf9fb, 0x000f, 0x0400, 0x0800,
   0x0000, 0x0000, 0x7f82, 0x0000, 0xfc00, 0xa4af, 0x13ff, 0xd820, 0xffff,
   0xffff, 0xfbff, 0x001f, 0x0000, 0x0900, 0x0000, 0x0000, 0x7f00, 0x0000,
   0xfc00, 0x249f, 0x10bf, 0xf54c, 0xffff, 0xffff, 0xfbfd, 0x001f, 0x0200,
   0x1000, 0x0300, 0x8000, 0x1e00, 0x0000, 0xfe00, 0xc97f, 0x0e2f, 0xba91,
   0xffff, 0xffff, 0xfdff, 0x001f, 0x0000, 0x03c0, 0x0200, 0x0000, 0x0800,
   0x0000, 0xfe00, 0x1d7f, 0x78f4, 0xfaaa, 0xffff, 0xffff, 0xfdff, 0x001f,
   0x0100, 0x0c00, 0x0000, 0x2800, 0x0000, 0x0000, 0xf600, 0xf7df, 0x5711,
   0xfaa9, 0xffff, 0xffff, 0xffff, 0x007f, 0x0000, 0x0400, 0x0000, 0x0600,
   0x0000, 0x0000, 0xdc00, 0xffff, 0xfc7f, 0xfa52, 0xffff, 0xffff, 0xffff,
   0x00df, 0x0080, 0x0000, 0x0000, 0x0000, 0x0000, 0x0000, 0xb600, 0xfffc,
   0x7fff, 0xf9a5, 0xffff, 0xffff, 0xffff, 0x03ff, 0x0000, 0x0000, 0x0000,
   0x0000, 0x0001, 0x0000, 0xb600, 0xfffd, 0xffff, 0xfb64, 0xffff, 0xffff,
   0xffff, 0x03ff, 0x0080, 0x0000, 0x0000, 0xc000, 0x0000, 0x0000, 0xde00,
   0xfff6, 0xffff, 0xfff5, 0x4fff, 0xffff, 0xffff, 0x03b0, 0x0000, 0x0000,
   0x0000, 0x3000, 0x0000, 0x0000, 0xfe00, 0xffb6, 0x7fff, 0xffff, 0x5fff,
   0xefff, 0xffff, 0x0000, 0x0000, 0x0000, 0x0000, 0x1000, 0x0000, 0x0000,
   0xfff0, 0xfedf, 0xffff, 0xffff, 0x4fff, 0xb8ff, 0xffff, 0x0000, 0x0000,
   0x0000, 0x0000, 0x0000, 0x0000, 0x0000, 0xfff8, 0xe6b7, 0x7fff, 0xffff,
   0x5fff, 0xe5ff, 0x7fff, 0x0001, 0x0000, 0x0000, 0x0000, 0x0400, 0x0000,
   0x0000, 0x7fc3, 0xf2ff, 0xffff, 0xffff, 0xcfff, 0x87ff, 0xafff, 0x0001,
   0x0000, 0x0000, 0x0000, 0x0000, 0x0000, 0xd000, 0xbf00, 0xe7fe, 0xffff,
   0xffff, 0x9fff, 0x0fff, 0x9fff, 0x0003, 0x0000, 0x0000, 0x0000, 0x0000,
   0x0000, 0x7000, 0x0b80, 0xdffc, 0xbfff, 0xffff, 0x3e70, 0x1fff, 0xbfff,
   0x0003, 0x0000, 0x0000, 0x0000, 0x0000, 0x0000, 0x3c00, 0xffe0, 0xfffc,
   0xffff, 0xffff, 0xb860, 0x3ff1, 0xfffe, 0x0007, 0x0000, 0x0000, 0x0000,
   0x0000, 0x0000, 0x1c00, 0x3ff0, 0xfff8, 0xffff, 0x3fff, 0x3060, 0x7be1,
   0xc7fc, 0x000f, 0x0000, 0x0000, 0x0000, 0x0000, 0x0000, 0x0c00, 0xaaf8,
   0xfffc, 0xffff, 0x3fef, 0xa020, 0xe3c0, 0x01fc, 0x001e, 0x0000, 0x0000,
   0x0000, 0x0000, 0x0000, 0x0e00, 0x1bfc, 0xfff8, 0xffff, 0x3eff, 0x6000,
   0xc381, 0x00fb, 0x001c, 0x0000, 0x0000, 0x0000, 0x0000, 0x0000, 0x0e00,
   0x2f7e, 0xfff8, 0xffff, 0x3ffe, 0xc000, 0x8380, 0x003b, 0x0030, 0x0000,
   0x0000, 0x0000, 0x0000, 0x0000, 0x0600, 0x15fe, 0xb6f8, 0xffff, 0x7fff,
   0xc000, 0x8300, 0x0017, 0x0040, 0x0000, 0x0000, 0x0000, 0x0000, 0x0000,
   0x1e00, 0x17de, 0x3ff8, 0xfffd, 0xffff, 0x8000, 0x8200, 0x001f, 0x0000,
   0x0000, 0x0000, 0x0000, 0x0000, 0x0000, 0xee00, 0x36bf, 0xff98, 0xffff,
   0xffff, 0x0001, 0x0601, 0x001d, 0x0000, 0x0000, 0x0000, 0x0000, 0x0000,
   0x0000, 0xfa00, 0x46bf, 0xbfb8, 0xffef, 0xffff, 0x0003, 0x0000, 0x0030,
   0x0000, 0x0000, 0x0000, 0x0000, 0x0000, 0x0000, 0xf600, 0x9fff, 0xfff8,
   0xfffb, 0xffff, 0x000f, 0x0000, 0x0060, 0x0000, 0x0000, 0x0000, 0x0000,
   0x0000, 0x0000, 0xbfc0, 0x2bff, 0x7cd8, 0xffef, 0xffff, 0x001f, 0x0000,
   0x0000, 0x0000, 0x0000, 0x0000, 0x0000, 0x0000, 0x0000, 0x04f0, 0xbfff,
   0xd8b8, 0xff7e, 0xffff, 0x003f, 0x0000, 0x0000, 0x0000, 0x0000, 0x0000,
   0x0000, 0x0000, 0x0000, 0x860a, 0x1dff, 0xb0b8, 0xfffa, 0xffff, 0x001f,
   0x0000, 0x0000, 0x0000, 0x0000, 0x0000, 0x0000, 0x0000, 0x0000, 0x8300,
   0x0eef, 0xf17c, 0xffe7, 0xffff, 0x001f, 0x0000, 0x0000, 0x0000, 0x0000,
   0x0000, 0x0000, 0x0000, 0x20a0, 0x8080, 0x8777, 0xe17f, 0xfade, 0xffff,
   0x001f, 0x0000, 0x0000, 0x0000, 0x0000, 0x0000, 0x0000, 0x0000, 0x07f0,
   0x80c0, 0xf05f, 0xc17f, 0xffff, 0xffff, 0x000f, 0x0000, 0x0000, 0x0000,
   0x0000, 0x0000, 0x0000, 0x0000, 0x0068, 0xc050, 0xfeff, 0x023f, 0xfff8,
   0xffff, 0x000f, 0x0000, 0x0000, 0x0000, 0x0000, 0x0000, 0x0000, 0x0000,
   0x0018, 0xc01c, 0xffbf, 0x840b, 0xffe0, 0xffff, 0x000f, 0x0000, 0x0000,
   0x0000, 0x0000, 0x0000, 0x0000, 0x0000, 0x0000, 0xc00e, 0xffef, 0x017f,
   0xff81, 0xffff, 0x001f, 0x0000, 0x0000, 0x0000, 0x0000, 0x0000, 0x0000,
   0x0000, 0x0000, 0xc006, 0xfff7, 0x0083, 0xf800, 0xffff, 0x003f, 0x0000,
   0x0000, 0x0000, 0x0000, 0x0000, 0x0000, 0x0000, 0x0000, 0xe006, 0xffff,
   0xfe12, 0x8103, 0xffff, 0x007f, 0x0000, 0x0000, 0x0000, 0x0000, 0x0000,
   0x0000, 0x0000, 0x0000, 0xe002, 0xfffd, 0xff92, 0x6003, 0xffff, 0x00ff,
   0x0000, 0x0000, 0x0000, 0x0000, 0x0000, 0x0000, 0x0000, 0x0000, 0xe000,
   0xffff, 0xfff7, 0x4404, 0xffff, 0x01ff, 0x0000, 0x0000, 0x0000, 0x0000,
   0x0000, 0x0000, 0x0000, 0x0000, 0xe000, 0x7ffe, 0x0fff, 0x0100, 0xffff,
   0x03ff, 0x0000, 0x0000, 0x0000, 0x0000, 0x0000, 0x0000, 0x0000, 0x0000,
   0xe000, 0xffff, 0x87fd, 0x2800, 0xfffe, 0x03ff, 0x0000, 0x0000, 0x0000,
   0x0000, 0x0000, 0x0000, 0x0000, 0x0000, 0xe000, 0xbfff, 0x01ff, 0x8000,
   0xfffc, 0x03ff, 0x0000, 0x0000, 0x0000, 0x0000, 0x0000, 0x0000, 0x0000,
   0x0000, 0xf000, 0xffff, 0x2b7f, 0x0802, 0xfff8, 0x01ff, 0x0000, 0x0000,
   0x0000, 0x0000, 0x0000, 0x0000, 0x0000, 0x0000, 0xf000, 0xffff, 0x11ff,
   0x5000, 0xfffd, 0x01ff, 0x0000, 0x0000, 0x0000, 0x0000, 0x0000, 0x0000,
   0x0000, 0x0000, 0xf000, 0xfffb, 0x457f, 0x0001, 0xfff0, 0x01ff, 0x0000,
   0x0000, 0x0000, 0x0000, 0x0000, 0x0000, 0x0000, 0x0000, 0xf000, 0xfff9,
   0x09ff, 0x1404, 0xfff5, 0x00bf, 0x0000, 0x0000, 0x0000, 0x0000, 0x0000,
   0x0000, 0x0000, 0x0000, 0xf000, 0xfff9, 0x55ff, 0x1011, 0xfff4, 0x00ff,
   0x0000, 0x0000, 0x0000, 0x0000, 0x0000, 0x0000, 0x0000, 0x0000, 0xf000,
   0xfff8, 0x0bef, 0x0004, 0xffe8, 0x01ff, 0x0000, 0x0000, 0x0000, 0x0000,
   0x0000, 0x0000, 0x0000, 0x0000, 0xf000, 0xfff8, 0x5b7b, 0x0009, 0xffc8,
   0x01ff, 0x0000, 0x0000, 0x0000, 0x0000, 0x0000, 0x0000, 0x0000, 0x0000,
   0xf000, 0xfff8, 0x57d7, 0x1012, 0xffa0, 0x01ff, 0x0000, 0x0000, 0x0000,
   0x0000, 0x0000, 0x0000, 0x0000, 0x0000, 0xf000, 0x7ff8, 0x5ef7, 0x0025,
   0xffa0, 0x03ff, 0x0000, 0x0000, 0x0000, 0x0000, 0x0000, 0x0000, 0x0000,
   0x0000, 0x0000, 0xfff8, 0xf15f, 0x024a, 0xff88, 0x07ff, 0x0000, 0x0000,
   0x0000, 0x0000, 0x0000, 0x0000, 0x0000, 0x0000, 0x0000, 0x9ff0, 0x837f,
   0x084a, 0xff20, 0x0fff, 0x0000, 0x0000, 0x0000, 0x0000, 0x0000, 0x0000,
   0x0000, 0x0000, 0x0000, 0x9ff0, 0x0abb, 0x0114, 0xffc0, 0x1fff, 0x0000,
   0x0000, 0x0000, 0x0000, 0x0000, 0x0000, 0x0000, 0x0000, 0x0000, 0x0ff0,
   0x157f, 0x1650, 0xff20, 0x17ff, 0x0000, 0x0000, 0x0000, 0x0000, 0x0000,
   0x0000, 0x0000, 0x0000, 0x0000, 0x0ff0, 0x55fc, 0x0888, 0xffd4, 0x37ff,
   0x0000, 0x0000, 0x0000, 0x0000, 0x0000, 0x0000, 0x0000, 0x0000, 0x0000,
   0x07f0, 0x5ff0, 0x5531, 0xffe9, 0x2eff, 0x0000, 0x0000, 0x0000, 0x0000,
   0x0000, 0x0000, 0x0000, 0x0000, 0x0000, 0x07f0, 0x7bc0, 0xa8a1, 0xfffb,
   0x1bff, 0x0000, 0x0000, 0x0000, 0x0000, 0x0000, 0x0000, 0x0000, 0x0000,
   0x0000, 0x03e0, 0x6e00, 0x82a1, 0xffea, 0x1fff, 0x0000, 0x0000, 0x0000,
   0x0000, 0x0000, 0x0000, 0x0000, 0x0000, 0x0000, 0x03e0, 0xb800, 0x7af4,
   0xffff, 0x2dff, 0x0000, 0x0000, 0x0000, 0x0000, 0x0000, 0x0000, 0x0000,
   0x0000, 0x0000, 0x03e0, 0x7c00, 0xe3c5, 0xffff, 0x1fbf, 0x0000, 0x0000,
   0x0000, 0x0000, 0x0000, 0x0000, 0x0000, 0x0000, 0x0000, 0x01e0, 0x5f80,
   0xfbaa, 0xfffd, 0x36ff, 0x0000, 0x0000, 0x0000, 0x0000, 0x0000, 0x0000,
   0x0000, 0x0000, 0x0000, 0x01e0, 0xbfc0, 0xf755, 0xfffb, 0x17ff, 0x0000,
   0x0000, 0x0000, 0x0000, 0x0000, 0x0000, 0x0000, 0x0000, 0x0000, 0x03c0,
   0x7fc0, 0xfda5, 0xffff, 0x3fbf, 0x0000, 0x0000, 0x0000, 0x0000, 0x0000,
   0x0000, 0x0000, 0x0000, 0x0000, 0x01c0, 0x7fc0, 0xf12b, 0xffee, 0x2eff,
   0x0000, 0x0000, 0x0000, 0x0000, 0x0000, 0x0000, 0x0000, 0x0000, 0x0000,
   0x0280, 0xdfe0, 0xeea5, 0xffff, 0x1fff, 0x0000, 0x0000, 0x0000, 0x0000,
   0x0000, 0x0000, 0x0000, 0x0000, 0x0000, 0x0280, 0xfff0, 0xe8af, 0xffff,
   0x1fff, 0x0000, 0x0000, 0x0000, 0x0000, 0x0000, 0x0000, 0x0000, 0x0000,
   0x0000, 0x0000, 0x9ff0, 0xeb5e, 0xfffb, 0x17ff, 0x0000, 0x0000, 0x0000,
   0x0000, 0x0000, 0x0000, 0x0000, 0x0000, 0x0000, 0x0000, 0xfff0, 0xdf7a,
   0xfbff, 0x0fff, 0x0000, 0x0000, 0x0000, 0x0000, 0x0000, 0x0000, 0x0000,
   0x0000, 0x0000, 0x0000, 0xfff8, 0xfdfa, 0xffff, 0x07df, 0x0000, 0x0000,
   0x0000, 0x0000, 0x0000, 0x0000, 0x0000, 0x0000, 0x0000, 0x0000, 0xfffc,
   0xffe7, 0x7fff, 0x07ff, 0x0000, 0x0000, 0x0000, 0x0000, 0x0000, 0x0000,
   0x0000, 0x0000, 0x0000, 0x0000, 0xfffe, 0xffaf, 0xffff, 0x01ff, 0x0000,
   0x0000, 0x0000, 0x0000, 0x0000, 0x0000, 0x0000, 0x0000, 0x0000, 0x8000,
   0xf06b, 0xfaff, 0xdfff, 0x01ff, 0x0000, 0x0000, 0x0000, 0x0000, 0x0000,
   0x0000, 0x0000, 0x0000, 0x0000, 0xf800, 0xefbf, 0xeaef, 0xffff, 0x01fb,
   0x0000, 0x0000, 0x0000, 0x0000, 0x0000, 0x0000, 0x0000, 0x0000, 0x0000,
   0xf000, 0xdfff, 0xabff, 0xffff, 0x007f, 0x0000, 0x0000, 0x0000, 0x0000,
   0x0000, 0x0000, 0x0000, 0x0000, 0x0000, 0xe000, 0x7fff, 0xfbff, 0xffff,
   0x00ff, 0x0000, 0x0000, 0x0000, 0x0000, 0x0000, 0x0000, 0x0000, 0x0000,
   0x0000, 0xc000, 0xffff, 0xffff, 0xffff, 0x007f, 0x0000, 0x0000, 0x0000,
   0x0000, 0x0000, 0x0000, 0x0000, 0x0000, 0x0000, 0xc000, 0x9eff, 0xffff,
   0xffff, 0x007f, 0x0000, 0x0000, 0x0000, 0x0000, 0x0000, 0x0000, 0x0000,
   0x0000, 0x0000, 0xf800, 0x7fff, 0xfff8, 0xffff, 0x00ff, 0x0000, 0x0000,
   0x0000, 0x0000, 0x0000, 0x0000, 0x0000, 0x0000, 0x0000, 0xfc00, 0xffff,
   0xffd7, 0xffff, 0x0007, 0x0000, 0x0000, 0x0000, 0x0000, 0x0000, 0x0000,
   0x0000, 0x0000, 0x0000, 0xfc00, 0xffff, 0xffff, 0xffff, 0x0001, 0x0000,
   0x0000, 0x0000, 0x0000, 0x0000, 0x0000, 0x0000, 0x0000, 0x0000, 0xfc00,
   0xffff, 0xffff, 0xffff, 0x0000, 0x0000, 0x0000, 0x0000, 0x0000, 0x0000,
   0x0000, 0x0000, 0x0000, 0x0000, 0xfc00, 0xffff, 0xffff, 0x7fff, 0x0000,
   0x0000, 0x0000, 0x0000, 0x0000, 0x0000, 0x0000, 0x0000, 0x0000, 0x0000,
   0xfc00, 0xffff, 0xffff, 0x3fff, 0x0000, 0x0000, 0x0000, 0x0000, 0x0000,
   0x0000, 0x0000, 0x0000, 0x0000, 0x0000, 0xfe00, 0xffff, 0xffff, 0x3fff,
   0x0000, 0x0000, 0x0000, 0x0000, 0x0000, 0x0000, 0x0000, 0x0000, 0x0000,
   0x0000, 0xfe00, 0xffff, 0xffff, 0x1fff, 0x0000, 0x0000, 0x0000, 0x0000,
   0x0000, 0x0000, 0x0000, 0x0000, 0x0000, 0x0000, 0xff80, 0xffff, 0xffff,
   0x0fff, 0x0000, 0x0000, 0x0000, 0x0000, 0x0000, 0x0000, 0x0000, 0x0000,
   0x0000, 0x0000, 0xffc0, 0xffff, 0xffff, 0x0fff, 0x0000, 0x0000, 0x0000,
   0x0000, 0x0000, 0x0000, 0x0000, 0x0000, 0x0000, 0x0000, 0xfff0, 0xffff,
   0xffff, 0x0fff, 0x0000, 0x0000, 0x0000, 0x0000, 0x0000, 0x0000, 0x0000,
   0x0000, 0x0000, 0x0000, 0xfff0, 0xffff, 0xffff, 0x0fff, 0x0000, 0x0000,
   0x0000, 0x0000, 0x0000, 0x0000, 0x0000, 0x0000, 0x0000, 0x0000, 0xfff8,
   0xffff, 0xffff, 0x0fff, 0x0000, 0x0000, 0x0000, 0x0000, 0x0000, 0x0000,
   0x0000, 0x0000, 0x0000, 0x0000, 0xfff8, 0xffff, 0xffff, 0x0fff, 0x0000,
   0x0000, 0x0000, 0x0000, 0x0000, 0x0000, 0x0000, 0x0000, 0x0000, 0x0000,
   0xfff8, 0xffff, 0xffff, 0x0fff, 0x0000, 0x0000, 0x0000, 0x0000, 0x0000,
   0x0000, 0x0000, 0x0000, 0x0000, 0x0000, 0xfff8, 0xffff, 0xffff, 0x0fff,
   0x0000, 0x0000, 0x0000, 0x0000, 0x0000, 0x0000, 0x0000, 0x0000, 0x0000,
   0x0000, 0xfff8, 0xffff, 0xffff, 0x1fff, 0x0000, 0x0000, 0x0000, 0x0000,
   0x0000, 0x0000, 0x0000, 0x0000, 0x0000, 0x0000, 0xfffc, 0xffff, 0xffff,
   0x3fff, 0x0000, 0x0000, 0x0000, 0x0000, 0x0000, 0x0000, 0x0000, 0x0000,
   0x0000, 0x0000, 0xfffe, 0xffff, 0xffff, 0x3fff, 0x0000, 0x0000, 0x0000,
   0x0000, 0x0000, 0x0000, 0x0000, 0x0000, 0x0000, 0x0000, 0xff7f, 0xffff,
   0xffff, 0x7fff, 0x0000, 0x0000, 0x0000, 0x0000, 0x0000, 0x0000, 0x0000,
   0x0000, 0x0000, 0xa000, 0xff7f, 0xffff, 0xffff, 0x7fff, 0x0000, 0x0000,
   0x0000, 0x0000, 0x0000, 0x0000, 0x0000, 0x0000, 0x0000, 0xc000, 0xff9f,
   0xffff, 0xffff, 0xffff, 0x0000, 0x0000, 0x0000, 0x0000, 0x0000, 0x0000,
   0x0000, 0x0000, 0x0000, 0xc000, 0xf9df, 0xffa3, 0xffff, 0xffff, 0x0001,
   0x0000, 0x0000, 0x0000, 0x0000, 0x0000, 0x0000, 0x0000, 0x0000, 0xe000,
   0xf9cf, 0xff31, 0xffff, 0xffff, 0x0001, 0x0000, 0x0000, 0x0000, 0x0000,
   0x0000, 0x0000, 0x0000, 0x0000, 0xe000, 0x1eff, 0xff21, 0xffff, 0xffff,
   0x0001, 0x0000, 0x0000, 0x0000, 0x0000, 0x0000, 0x0000, 0x0000, 0x0000,
   0xf000, 0xbcf7, 0xff2f, 0xffff, 0xffff, 0x0003, 0x0000, 0x0000, 0x0000,
   0x0000, 0x0000, 0x0000, 0x0000, 0x0000, 0xfc00, 0xdc77, 0xff71, 0xffff,
   0xffff, 0x0001, 0x0000, 0x0000, 0x0000, 0x0000, 0x0000, 0x0000, 0x0000,
   0x0000, 0xfc00, 0x8e7f, 0xffb9, 0xffff, 0xffff, 0x0001, 0x0000, 0x0000,
   0x0000, 0x0000, 0x0000, 0x0000, 0x0000, 0x0000, 0xffc0, 0x8f7f, 0xffbc,
   0xffff, 0xffff, 0x0003, 0x0000, 0x0000, 0x0000, 0x0000, 0x0000, 0x0000,
   0x0000, 0x0000, 0xff10, 0xcf3f, 0xfffd, 0xffff, 0xffff, 0x0003, 0x0000,
   0x0000, 0x0000, 0x0000, 0x0000, 0x0000, 0x0000, 0x0000, 0xf600, 0xcfbf,
   0x3ffc, 0xfff4, 0xffff, 0x0003, 0x0000, 0x0000, 0x0000, 0x0000, 0x0000,
   0x0000, 0x0000, 0x0000, 0xfc00, 0xefbf, 0x0ffd, 0xffd4, 0x7fff, 0x0006,
   0x0000, 0x0000, 0x0000, 0x0000, 0x0000, 0x0000, 0x0000, 0x0000, 0xdc00,
   0xefff, 0x03ff, 0xfd50, 0x3fff, 0x0000, 0x0000, 0x0000, 0x0000, 0x0000,
   0x0000, 0x0000, 0x0000, 0x0000, 0xd800, 0xffff, 0x007f, 0xe0a4, 0x37ef,
   0x0000, 0x0000, 0x0000, 0x0000, 0x0000, 0x0000, 0x0000, 0x0000, 0x0000,
   0x9400, 0xffff, 0x00bf, 0x0140, 0x638f, 0x0000, 0x0000, 0x0000, 0x0000,
   0x0000, 0x0000, 0x0000, 0x0000, 0x0000, 0xc200, 0xffff, 0x0245, 0x0292,
   0x070c, 0x0000, 0x0000, 0x0000, 0x0000, 0x0000, 0x0000, 0x0000, 0x0000,
   0x0000, 0x4040, 0xffff, 0x545a, 0x0500, 0x0000, 0x0000, 0x0000, 0x0000,
   0x0000, 0x0000, 0x0000, 0x0000, 0x0000, 0x0000, 0x8000, 0x3ff7, 0x1055,
   0x0aa9, 0x0000, 0x0000, 0x0000, 0x0000, 0x0000, 0x0000, 0x0000, 0x0000,
   0x0000, 0x0000, 0x7000, 0x2ffe, 0x25a4, 0x1400, 0x0000, 0x0000, 0x0000,
   0x0000, 0x0000, 0x0000, 0x0000, 0x0000, 0x0000, 0x0000, 0x0c00, 0xaafc,
   0x9228, 0x12a2, 0x0000, 0x0000, 0x0000, 0x0000, 0x0000, 0x0000, 0x0000,
   0x0000, 0x0000, 0x0000, 0x0100, 0x5be8, 0x24c1, 0xb008, 0x0000, 0x0000,
   0x0000, 0x0000, 0x0000, 0x0000, 0x0000, 0x0000, 0x0000, 0x0000, 0x0000,
   0xb680, 0x4a94, 0xc228, 0x0002, 0x0000, 0x0000, 0x0000, 0x0000, 0x0000,
   0x0000, 0x0000, 0x0000, 0x0000, 0x0000, 0x5600, 0x5285, 0x9420, 0x0006,
   0x0000, 0x0000, 0x0000, 0x0000, 0x0000, 0x0000, 0x0000, 0x0000, 0x0000,
   0x0000, 0x5800, 0x4501, 0x1040, 0x000f, 0x0000, 0x0000, 0x0000, 0x0000,
   0x0000, 0x0000, 0x0000, 0x0000, 0x0000, 0x0000, 0x7000, 0xc205, 0x6842,
   0x0016, 0x0000, 0x0000, 0x0000, 0x0000, 0x0000, 0x0000, 0x0000, 0x0000,
   0x0000, 0x0000, 0xc000, 0x454b, 0x5a50, 0x002c, 0x0000, 0x0000, 0x0000,
   0x0000, 0x0000, 0x0000, 0x0000, 0x0000, 0x0000, 0x0000, 0x4000, 0xca5b,
   0xe4a5, 0x0059, 0x0000, 0x0000, 0x0000, 0x0000, 0x0000, 0x0000, 0x0000,
   0x0000, 0x0000, 0x0000, 0x0000, 0x9446, 0xb954, 0x007b, 0x0000, 0x0000,
   0x0000, 0x0000, 0x0000, 0x0000, 0x0000, 0x0000, 0x0000, 0x0000, 0x0000,
   0xb4dc, 0x32cd, 0x00a5, 0x0000, 0x0000, 0x0000, 0x0000, 0x0000, 0x0000,
   0x0000, 0x0000, 0x0000, 0x0000, 0x0000, 0xab80, 0x007a, 0x0080, 0x0000,
   0x0000, 0x0000, 0x0000, 0x0000, 0x0000, 0x0000, 0x0000, 0x0000, 0x0000,
   0x0000, 0xe200, 0x0075, 0x0080, 0x0000, 0x0000, 0x0000, 0x0000, 0x0000,
   0x0000, 0x0000, 0x0000, 0x0000, 0x0000, 0x0000, 0x0000, 0x0000, 0x0000,
   0x0000, 0x0000, 0x0000, 0x0000, 0x0000, 0x0000, 0x0000, 0x0000, 0x0000,
   0x0000, 0x0000, 0x0000, 0x0000, 0x0000, 0x0000, 0x0000, 0x0000, 0x0000,
   0x0000, 0x0000, 0x0000, 0x0000, 0x0000, 0x0000, 0x0000, 0x0000, 0x0000,
   0x0000, 0x0000, 0x0000, 0x0000, 0x0000, 0x0000, 0x0000, 0x0000, 0x0000,
   0x0000, 0x0000, 0x0000, 0x0000, 0x0000, 0x0000, 0x0000, 0x0000, 0x0000,
   0x0000, 0x0000, 0x0000, 0x0000, 0x0000, 0x0000, 0x0000, 0x0000, 0x0000,
   0x0000, 0x0000, 0x0000, 0x0000, 0x0000, 0x0000, 0x0000, 0x0000, 0x0000,
   0x0000, 0x0000, 0x0000, 0x0000, 0x0000, 0x0000, 0x0000, 0x0000, 0x0000,
   0x0000, 0x0000, 0x0000, 0x0000, 0x0000, 0x0000, 0x0000, 0x0000, 0x0000,
   0x0000, 0x0000, 0x0000, 0x0000, 0x0000, 0x0000, 0x0000, 0x0000, 0x0000,
   0x0000, 0x0000, 0x0000, 0x0000, 0x0000, 0x0000, 0x0000, 0x0000, 0x0000,
   0x0000, 0x0000, 0x0000, 0x0000, 0x0000, 0x0000, 0x0000, 0x0000, 0x0000,
   0x0000, 0x0000, 0x0000, 0x0000, 0x0000, 0x0000, 0x0000, 0x0000, 0x0000,
   0x0000, 0x0000, 0x0000, 0x0000, 0x0000, 0x0000, 0x0000, 0x0000, 0x0000,
   0x0000, 0x0000, 0x0000, 0x0000, 0x0000, 0x0000, 0x0000, 0x0000, 0x0000,
   0x0000, 0x0000, 0x0000, 0x0000, 0x0000, 0x0000, 0x0000, 0x0000, 0x0000 };
